PathFileType	4	(X/Y/Z)	7_coords_data.trc
DataRate	CameraRate	NumFrames	NumMarkers	Units	OrigDataRate	OrigDataStartFrame	OrigNumFrames
30.0	30.0	7	21	m	30.0	1	86
Frame#	Time	THUMB_TIP	THUMB_IP	THUMB_MCP	THUMB_CMC	INDEX_TIP	INDEX_DIP	INDEX_PIP	INDEX_MCP	MIDDLE_TIP	MIDDLE_DIP	MIDDLE_PIP	MIDDLE_MCP	RING_TIP	RING_DIP	RING_PIP	RING_MCP	PINKY_TIP	PINKY_DIP	PINKY_PIP	PINKY_MCP	WRIST
X1	Y1	Z1	X2	Y2	Z2	X3	Y3	Z3	X4	Y4	Z4	X5	Y5	Z5	X6	Y6	Z6	X7	Y7	Z7	X8	Y8	Z8	X9	Y9	Z9	X10	Y10	Z10	X11	Y11	Z11	X12	Y12	Z12	X13	Y13	Z13	X14	Y14	Z14	X15	Y15	Z15	X16	Y16	Z16	X17	Y17	Z17	X18	Y18	Z18	X19	Y19	Z19	X20	Y20	Z20	X21	Y21	Z21
0	-2.749317978547796e-18	0.5312424982864232	-0.027279848915443466	-0.13325071099034191	0.50846527681244	-0.02446160534439709	-0.13213013743212593	0.4810027137265315	-0.017321674196265402	-0.11933760007816696	0.469825719690832	-0.031110811311036157	-0.07841298032482058	0.5634986934573359	0.06832874390897212	-0.1480257258542737	0.5501501904746356	0.05694210932831781	-0.1435355119342594	0.5326143501356109	0.0429279453724872	-0.13221706039602643	0.5041663755435282	0.017436958545919784	-0.11338733851236626	0.5173718477591754	-0.016624309740146337	-0.13094435204648602	0.5348474236836974	-0.012022342924857238	-0.13213856623885212	0.5487978562038014	0.010423191551684002	-0.11985064678255575	0.5194167763523898	0.022364599225644904	-0.08838156909462141	0.536388756221831	-0.02646614401285141	-0.11562508426682755	0.5507045788964461	-0.01603206382926517	-0.11228035828829447	0.5615623548270576	0.00200543793751648	-0.09897858356256778	0.5327330738279022	0.009578320709771798	-0.07166110129224446	0.5916191594828474	0.03182159387555758	-0.05220566105723062	0.5785413455330438	0.021144576838935586	-0.05502914994405206	0.5622507965546514	0.008673163259921651	-0.05948940513000095	0.5341190613387213	-0.01295260199608661	-0.06595587262259972	0.4622830810018609	-0.023011742144276925	-0.051989820119430985
1	0.03333333333333339	0.5316412910858869	-0.027564870774052813	-0.13375456901448968	0.5088426059316025	-0.024866798638178894	-0.13278484638124172	0.48143760171296923	-0.01792382052215441	-0.11976252713092778	0.4697547856526304	-0.03053966670635727	-0.07860135326578122	0.5622863541382594	0.06979770108482464	-0.14787939414516355	0.5490252029358614	0.05836987811030825	-0.14323754851543247	0.531527706006337	0.04375028759251953	-0.13264911108144517	0.503707293965655	0.017877499854881518	-0.11340697963584367	0.5165027564523547	-0.017086968844958916	-0.1310412432169007	0.5338736554560333	-0.012257547838597699	-0.13275254697348982	0.5479134915356966	0.010436609697436816	-0.12103641422476102	0.5189064748229221	0.022335371369262058	-0.08920623400061012	0.53528849739678	-0.02639672874233076	-0.11642027891412071	0.5499356934886847	-0.01629563550716745	-0.11351725254499656	0.5608844469563832	0.0019291826015532254	-0.1005495703539645	0.5322887714932283	0.009676581711422605	-0.07303619204743306	0.5927081245819066	0.031078235035582324	-0.053378193789497874	0.5794440653029335	0.020622855752320035	-0.05616203564689892	0.5627347036276498	0.008609836032223317	-0.06032095481047062	0.5338963482777377	-0.01215443420233761	-0.06649167546030849	0.4622830810018609	-0.023011742144276925	-0.051989820119430985
2	0.06666666666666676	0.5319312665822178	-0.027627016702325258	-0.13413106374984907	0.5091144276636688	-0.02505429022932401	-0.13325189353873557	0.48174950045938036	-0.01831801868678576	-0.12003813537501928	0.4697021724183603	-0.03010240693850802	-0.07873583422115227	0.5611572546152321	0.07112539723971176	-0.14767659875503908	0.5479876377488944	0.05963200329990995	-0.1429370747981003	0.5305708849850744	0.044511656624845936	-0.13293499138563797	0.5032953998013207	0.018260201891332845	-0.11342742551069745	0.5158469912980324	-0.01734468676639414	-0.13111524341238306	0.5331123927930753	-0.012306697254445498	-0.13324234775690036	0.5471973109469045	0.01058703798134733	-0.12197729038672456	0.5184676150626982	0.022350930844555555	-0.08984687924550222	0.5344672744565401	-0.02622145851545435	-0.11703624148841413	0.549349811149015	-0.016374645136229354	-0.11447687284129582	0.5603548541623488	0.001983105065863272	-0.1017465148419211	0.5319082906503364	0.009789717090774835	-0.07409564384208545	0.593509962727257	0.030461301746585484	-0.05426213375226219	0.5800965040135506	0.020193457605400228	-0.05702808784226843	0.5630652710437891	0.008564178272810113	-0.06096623267636264	0.5337025481991985	-0.011510258732239126	-0.0669437687140681	0.4622830810018609	-0.023011742144276925	-0.051989820119430985
3	0.10000000000000014	0.5321352774458472	-0.027509778490454884	-0.13441530962828557	0.5093029964156867	-0.025064337658519897	-0.13357461818829142	0.481961960761783	-0.018537681607581846	-0.12020710046192523	0.4696666655220324	-0.029784176443894916	-0.07882797445781353	0.5601215686522385	0.07231506040177027	-0.14745241357743	0.5470452750117288	0.06073780372545684	-0.14265891042441936	0.5297355488179071	0.04521139000212576	-0.13310309078469823	0.5029288134451094	0.01858857722448498	-0.1134495701723629	0.5153722757432961	-0.01742904196295858	-0.13118406349648126	0.5325390633536269	-0.012203014717629523	-0.13363151980311366	0.5466338167219696	0.010849556654701109	-0.1227078560125534	0.5180942410678732	0.022403670556590927	-0.09033281941911825	0.5338940183312907	-0.025964153644071647	-0.11751550073769879	0.5489326967305621	-0.016294010660069247	-0.11520758248259483	0.5599660798725792	0.0021514624559973994	-0.1026294682771221	0.5315900615566985	0.009915488463537625	-0.07489425025578594	0.594073690247734	0.029981082716119545	-0.054885131989849456	0.5805427782275838	0.019868673133087544	-0.05765164465527389	0.5632740325177147	0.00854559760678325	-0.06144511288810345	0.5335388314182115	-0.01100350636292799	-0.06732165954013641	0.4622830810018609	-0.023011742144276925	-0.051989820119430985
4	0.13333333333333353	0.5322701262074877	-0.027254846682926354	-0.13462914699339162	0.5094248427771887	-0.024935503678642446	-0.13378435529256466	0.482093483383648	-0.018614599109294278	-0.12029869775849139	0.46964638651620727	-0.029569600648363614	-0.07888677048081527	0.5591867014305204	0.0733681849765826	-0.14723146589081004	0.5462033551737329	0.06169471497582918	-0.14241868934105506	0.5290138946983276	0.045847072767454644	-0.1331783149979982	0.5026057189942793	0.018865798632496433	-0.11347412265123219	0.5150485041738568	-0.017370927823548515	-0.13125628085009805	0.5321287446559959	-0.011978719289139156	-0.13393759996458993	0.5462060931424451	0.0111985674754978	-0.12325812489224408	0.5177806012565688	0.02248572510675584	-0.09068913036288978	0.5335340235523657	-0.025647282317732584	-0.11788721124904805	0.5486646884786254	-0.01608240646947562	-0.1157480224082289	0.5597044018259428	0.0024134221703231984	-0.10324966127021312	0.5313304796621637	0.01005007767656535	-0.07547696122641473	0.5944431162433925	0.029633777809268402	-0.05528011892229895	0.5808220633687975	0.01964740954384031	-0.05806209078677449	0.5633875392877771	0.008555384954034129	-0.061779129872855776	0.5334049182213789	-0.010618706728915767	-0.0676340502926921	0.4622830810018609	-0.023011742144276925	-0.051989820119430985
5	0.1666666666666669	0.5323481906655639	-0.026901369910568407	-0.13478565847163165	0.5094922265665107	-0.02470397063149027	-0.1339045560308792	0.4821588141485299	-0.018578523967855726	-0.12033313500139459	0.469639001745901	-0.029443122431573043	-0.07891931125104318	0.5583579896336877	0.07428420238488262	-0.147031291189128	0.5454650326186314	0.0625080299513546	-0.1422257295961682	0.5283988586170713	0.046414894402851264	-0.13318324508327212	0.5023243617075545	0.019094740749006273	-0.11350163160149918	0.5148479010978608	-0.01720069543796096	-0.1313342751473991	0.5318565646362946	-0.011665270366622377	-0.1341740698434905	0.5458964303533064	0.0116078957579063	-0.12365497011070115	0.5175212546658473	0.022589013591556323	-0.09093781288655772	0.5333510006603511	-0.025292451596026527	-0.11817156443369453	0.548522640067429	-0.01577120528647774	-0.11613018587632018	0.5595520735631183	0.0027445372673642054	-0.10365225121372412	0.5311248824751101	0.010188512180072412	-0.07588171145762929	0.5946568417909265	0.02940545873304598	-0.05548340451856709	0.5809685672770929	0.019518965388399173	-0.05829203232947111	0.5634279404568933	0.008589256736094647	-0.061990667014085954	0.5332994346553016	-0.0103413178087719	-0.06788896647789011	0.4622830810018609	-0.023011742144276925	-0.051989820119430985
6	0.20000000000000023	0.5323789656217639	-0.026486027936950318	-0.13489267186695325	0.509514528602699	-0.024403651223992295	-0.13395393493546198	0.48217016863200723	-0.018457474161165416	-0.12032496006092563	0.4696418774565351	-0.029389153531201417	-0.07893135782128824	0.5576394339385982	0.07506050419005833	-0.14686494088764118	0.54483194444873	0.06318098190153087	-0.14208527948087862	0.5278841747043616	0.04690991056043187	-0.13313904166240215	0.5020830430762178	0.019278018546571962	-0.1135325059040998	0.5147448342818493	-0.016948387795875264	-0.13141651030830376	0.5316979389321189	-0.011293655844229394	-0.1343518551384792	0.5456867932491094	0.012050854738214545	-0.12392327275331388	0.5173111039711258	0.022705242188505614	-0.09109870562656563	0.5333082806320072	-0.02492080479140593	-0.11838303850832477	0.5484815087436751	-0.015393585195206894	-0.1163817300770501	0.5594891430458877	0.003118014429698557	-0.10387842469823316	0.5309681016711636	0.01032491366338223	-0.0761415965389644	0.5947491702693345	0.029275350432693026	-0.05553326570052869	0.5810123951486323	0.01946616050101907	-0.05837594087852627	0.5634139879802299	0.008639287240520377	-0.062102453931800305	0.5332201920271985	-0.010157544884868502	-0.06809388439510805	0.4622830810018608	-0.023011742144276925	-0.051989820119430985
